Coordinates
version=1
nRows=12
nColumns=33
inDegrees=yes

Units are S.I. units (second, meters, Newtons, ...)
Angles are in degrees.

endheader
time	ground_thorax_rot_x	ground_thorax_rot_y	ground_thorax_rot_z	ground_thorax_tx	ground_thorax_ty	ground_thorax_tz	clav_prot_r	clav_elev_r	scapula_abduction_r	scapula_elevation_r	scapula_upward_rot_r	scapula_winging_r	shoulder_elv_r	plane_of_elev_r	axial_rot_r	elbow_flexion_r	pro_sup_r	wrist_flex_r	wrist_dev_r	clav_prot_l	clav_elev_l	scapula_abduction_l	scapula_elevation_l	scapula_upward_rot_l	scapula_winging_l	shoulder_elv_l	plane_of_elev_l	axial_rot_l	elbow_flexion_l	pro_sup_l	wrist_flex_l	wrist_dev_l
      3.84000000	      1.95420293	      4.05533985	     12.27857240	     -0.12171595	      1.03683519	      0.02880097	      3.61002629	     11.33591164	     15.83010814	      7.50602649	     21.94499525	     -9.69314793	      8.25433856	    -73.62261781	     53.63958880	     49.40576891	    -66.49592393	     70.00000021	     20.84211291	     11.74515688	     -4.40751777	    -18.18468230	    -22.00211037	    -45.00000000	     -0.10503702	     62.62881031	    -38.72227138	     -4.60395618	     68.84841915	     24.83672751	      0.24407286	    -24.99999983
      3.85000000	      1.48413009	      4.10651902	     12.53902813	     -0.12232493	      1.03590796	      0.02859274	      4.00599427	     10.54436942	     16.14052605	      7.12461785	     21.04926177	     -9.63691858	      7.83953781	    -73.79188162	     52.91110581	     49.62343120	    -68.44821162	     70.00000021	     22.20922067	     12.01092340	     -3.23913563	    -18.51428462	    -22.94066315	    -44.63106221	     -0.03118684	     61.67226409	    -37.87587919	     -4.94615826	     67.97647811	     23.73489416	     -4.23584351	    -24.99999983
      3.86000000	      1.47592624	      4.10744939	     12.61843954	     -0.12255547	      1.03539959	      0.02868803	      3.99756967	     10.52082764	     16.13628601	      7.10409201	     21.05221511	     -9.63921624	      7.82950333	    -73.75576430	     52.91071293	     49.63111030	    -68.44867886	     70.00000021	     22.21696032	     12.00147347	     -3.27467000	    -18.49275605	    -22.90020376	    -44.61535205	     -0.03340360	     61.66926913	    -37.82580084	     -4.93543158	     67.99734823	     23.73262707	     -4.24130226	    -24.99999983
      3.87000000	      1.46515636	      4.11618303	     12.72018885	     -0.12272446	      1.03495259	      0.02873802	      3.98833443	     10.49070784	     16.13266145	      7.07697188	     21.05581660	     -9.63742627	      7.81940691	    -73.70731739	     52.90709774	     49.64636060	    -68.44919546	     70.00000021	     22.22522350	     11.98894019	     -3.31951173	    -18.46431507	    -22.84728747	    -44.59328777	     -0.03496114	     61.66822741	    -37.76102691	     -4.91847360	     68.01267365	     23.73030064	     -4.24810555	    -24.99999983
      3.88000000	      1.46256892	      4.11559683	     12.76096104	     -0.12260343	      1.03536900	      0.02901224	      3.90601166	     10.26745669	     15.86524052	      6.96751371	     20.82769502	     -9.51029986	      7.90470591	    -73.42639817	     52.66829712	     49.52029451	    -68.63834952	     70.00000021	     22.31673815	     11.89986887	     -3.69572870	    -18.33249855	    -22.51663429	    -44.64695848	     -0.05753847	     61.76504392	    -37.74193189	     -4.56215576	     67.59895057	     23.74854468	     -4.39959198	    -24.99999983
      3.89000000	      1.44198546	      4.11952512	     12.86340879	     -0.12267528	      1.03488664	      0.02905364	      3.90025666	     10.25598538	     15.88049062	      6.94853039	     20.85393346	     -9.51961760	      7.92068174	    -73.38112269	     52.65347420	     49.53897975	    -68.64300476	     70.00000021	     22.32289928	     11.90398111	     -3.72275159	    -18.32561425	    -22.47135843	    -44.60453879	     -0.04980293	     61.79252490	    -37.67570045	     -4.54784209	     67.62588846	     23.74493314	     -4.40820831	    -24.99999983
      3.90000000	      1.41151582	      4.12756001	     12.95846845	     -0.12267042	      1.03447840	      0.02904004	      3.89338907	     10.24467935	     15.89653776	      6.92830788	     20.88402649	     -9.52907517	      7.94302952	    -73.32817849	     52.63199701	     49.56742219	    -68.64881070	     70.00000021	     22.32964171	     11.90596810	     -3.75346974	    -18.31896614	    -22.42635073	    -44.56984460	     -0.04095391	     61.81696255	    -37.61728711	     -4.53316105	     67.63904283	     23.74196314	     -4.41639873	    -24.99999983
      3.91000000	      1.50839701	      4.31377678	     12.86707485	     -0.12287169	      1.03439661	      0.02951022	      3.87141839	     10.11347282	     15.47352594	      6.99997719	     20.36718061	     -9.31933130	      8.89507601	    -73.30339485	     52.10900523	     50.57018956	    -69.27585487	     70.00000021	     23.08280948	     12.10979153	     -4.42955726	    -18.82897951	    -21.95998078	    -45.00000000	      0.19619574	     62.20774268	    -37.55357860	     -4.40498272	     67.54803134	     23.64696258	     -5.04552387	    -24.99999983
      3.92000000	      1.49947218	      4.29869272	     12.93855881	     -0.12269505	      1.03407408	      0.02958104	      3.86235906	     10.10733955	     15.48968277	      6.98241105	     20.40386893	     -9.33334165	      8.92573641	    -73.26238973	     52.08920999	     50.58124931	    -69.28284912	     70.00000021	     23.08748029	     12.11944422	     -4.43536135	    -18.83813376	    -21.94315748	    -44.97651067	      0.20397143	     62.23071137	    -37.52353490	     -4.39543334	     67.55814152	     23.64323378	     -5.05064287	    -24.99999983
      3.93000000	      1.44264898	      4.21708336	     12.77411752	     -0.12264730	      1.03379324	      0.02969615	      3.82828802	     10.08761857	     15.48474087	      6.94330959	     20.46889175	     -9.33724422	      9.19797113	    -73.10023438	     52.00887906	     50.97215147	    -69.37317731	     70.00000021	     23.28693979	     12.19725221	     -4.50886186	    -18.98331210	    -21.87923493	    -45.00000000	      0.27569369	     62.28823083	    -37.45045847	     -4.28367002	     67.61717079	     23.55991588	     -5.13102041	    -24.99999983
      3.94000000	      1.42628759	      4.19504128	     12.83561364	     -0.12239651	      1.03365186	      0.02973514	      3.82302344	     10.09587886	     15.49587132	      6.93995338	     20.49834662	     -9.34668598	      9.23893269	    -73.08668527	     51.98618959	     50.97952121	    -69.38266174	     70.00000021	     23.28985205	     12.21063687	     -4.51113779	    -18.99843378	    -21.86388782	    -44.97225214	      0.28940624	     62.32108800	    -37.42258678	     -4.26968637	     67.63346812	     23.55325001	     -5.13553914	    -24.99999983
      3.95000000	      0.88803725	      4.83391493	     13.54107164	     -0.12337448	      1.03170296	      0.02865921	      3.45247199	      9.26019111	     14.04155217	      6.69240078	     19.20750485	     -8.69467971	     16.98519773	    -74.06466226	     57.86315797	     57.15689311	    -29.82523104	     70.00000021	    -24.99999983	     14.73361217	     -2.71625445	    -22.91445958	    -22.70262116	    -43.44245600	      2.23169283	     56.94923377	    -36.37368053	     -2.83759340	     67.18195222	     19.36331803	     -5.49152245	    -24.99999983
